<?xml version="1.0" encoding="UTF-8" standalone="no"?>
<svg
   xmlns:dc="http://purl.org/dc/elements/1.1/"
   xmlns:cc="http://creativecommons.org/ns#"
   xmlns:rdf="http://www.w3.org/1999/02/22-rdf-syntax-ns#"
   xmlns:svg="http://www.w3.org/2000/svg"
   xmlns="http://www.w3.org/2000/svg"
   xmlns:sodipodi="http://sodipodi.sourceforge.net/DTD/sodipodi-0.dtd"
   xmlns:inkscape="http://www.inkscape.org/namespaces/inkscape"
   id="Livello_1"
   data-name="Livello 1"
   viewBox="0 0 1440 250"
   version="1.1"
   inkscape:version="0.91 r13725"
   sodipodi:docname="bg-au.svg">
  <metadata
     id="metadata19">
    <rdf:RDF>
      <cc:Work
         rdf:about="">
        <dc:format>image/svg+xml</dc:format>
        <dc:type
           rdf:resource="http://purl.org/dc/dcmitype/StillImage" />
      </cc:Work>
    </rdf:RDF>
  </metadata>
  <defs
     id="defs17" />
  <sodipodi:namedview
     pagecolor="#ffffff"
     bordercolor="#878484"
     borderopacity="1"
     objecttolerance="10"
     gridtolerance="10"
     guidetolerance="10"
     inkscape:pageopacity="0"
     inkscape:pageshadow="2"
     inkscape:window-width="1855"
     inkscape:window-height="1056"
     id="namedview15"
     showgrid="false"
     inkscape:zoom="0.87222222"
     inkscape:cx="746.21748"
     inkscape:cy="174.48513"
     inkscape:window-x="65"
     inkscape:window-y="24"
     inkscape:window-maximized="1"
     inkscape:current-layer="Livello_1" />
  <title
     id="title3">bg-shapes</title>
  <path
     d="m 778.89967,250 c -74.45,-12.67 -114.13,6.68 -199.42,-7.82 C 413.70967,214 357.19967,107 369.65967,0 L 970.2097,0 c 57.8,92.24 85.79,171.52 147.25,199.42 53.52,24.29 107.75,36.28 143.44,50.58 z"
     style="opacity:0.3;fill:#878484"
     id="path5"
     inkscape:connector-curvature="0" />
  <path
     d="M 256.9,250 857,250 C 868.42,186.3 859.26,122.52 817.19,91.47 769.82,56.47 718.91,91.23 654.7,54.66 A 133.74,133.74 0 0 1 601.79,0 L 271.61,0 A 432.61,432.61 0 0 0 253,42.66 c -22.17,59.62 -47.5,127.76 -1.84,198.93 1.84,2.84 3.75,5.64 5.74,8.41 z"
     style="opacity:0.2;fill:#01142d"
     id="path7"
     inkscape:connector-curvature="0" />
  <path
     d="M 1532.93,0 716,0 c 13.3,36.1 33.61,67.76 59.85,92.95 29,27.81 64.27,47.34 104.9,58.05 73.43,19.34 147.55,5.85 214.37,-8.74 a 395.89,395.89 0 0 0 7.81,43.31 471.76,471.76 0 0 0 19.64,64.43 l 410.36,0 z"
     style="opacity:0.2;fill:#666666"
     id="path9"
     inkscape:connector-curvature="0" />
  <path
     d="m 1446,0 -355.4,0 c -5.43,19.31 -15.54,39.32 -34.55,59.82 -60.12,64.84 -128.29,47.31 -216.13,124.78 -3.57,3.14 -33.86,30.32 -59.35,65.4 l 665.43,0 z"
     style="opacity:0.2;fill:#01142d"
     id="path11"
     inkscape:connector-curvature="0" />
  <path
     d="M 648.22,156.9 C 545.56,99.85 364.28,296.32 292.64,236.78 261.56,210.95 291.93,170.86 248.88,90.14 240.88,75.14 216.68,29.77 175,0 L 4.68,0 A 196.65,196.65 0 0 0 -24,21.48 l 0,228.52 729.72,0 c -9.01,-42.1 -28.3,-76.87 -57.5,-93.1 z"
     style="opacity:0.2;fill:#878484"
     id="path13"
     inkscape:connector-curvature="0" />
</svg>
