<?xml version="1.0" encoding="iso-8859-1"?>
<!-- Generator: Adobe Illustrator 18.0.0, SVG Export Plug-In . SVG Version: 6.00 Build 0)  -->
<!DOCTYPE svg PUBLIC "-//W3C//DTD SVG 1.1//EN" "http://www.w3.org/Graphics/SVG/1.1/DTD/svg11.dtd">
<svg version="1.1" id="Capa_1" xmlns="http://www.w3.org/2000/svg" xmlns:xlink="http://www.w3.org/1999/xlink" x="0px" y="0px"
	 viewBox="0 0 340 340" style="enable-background:new 0 0 340 340;" xml:space="preserve">
<path style="fill-rule:evenodd;clip-rule:evenodd;" d="M331.783,266.645L215.865,28.675C207.316,11.131,189.51,0,170,0
	s-37.316,11.131-45.865,28.675L8.217,266.645c-7.703,15.81-6.71,34.473,2.61,49.386C20.148,330.944,36.497,340,54.08,340h231.84
	c17.583,0,33.933-9.056,43.252-23.969C338.493,301.118,339.486,282.455,331.783,266.645z M170,284.167
	c-10.396,0-18.818-8.424-18.818-18.817c0-10.394,8.423-18.817,18.818-18.817c10.395,0,18.818,8.423,18.818,18.817
	C188.818,275.743,180.395,284.167,170,284.167z M186.448,223.357c-0.515,8.598-7.912,15.271-16.45,15.323
	c-8.532-0.054-15.942-6.723-16.445-15.323c-1.655-35.015-3.304-70.033-4.955-105.052c-0.18-13.54,12.115-21.198,21.399-21.138
	c9.291-0.062,21.581,7.598,21.405,21.138C189.749,153.325,188.091,188.339,186.448,223.357z" fill="red"/>
<g>
</g>
<g>
</g>
<g>
</g>
<g>
</g>
<g>
</g>
<g>
</g>
<g>
</g>
<g>
</g>
<g>
</g>
<g>
</g>
<g>
</g>
<g>
</g>
<g>
</g>
<g>
</g>
<g>
</g>
</svg>
