<?xml version="1.0" encoding="UTF-8" standalone="no"?>
<svg
   xmlns:dc="http://purl.org/dc/elements/1.1/"
   xmlns:cc="http://creativecommons.org/ns#"
   xmlns:rdf="http://www.w3.org/1999/02/22-rdf-syntax-ns#"
   xmlns:svg="http://www.w3.org/2000/svg"
   xmlns="http://www.w3.org/2000/svg"
   xmlns:sodipodi="http://sodipodi.sourceforge.net/DTD/sodipodi-0.dtd"
   xmlns:inkscape="http://www.inkscape.org/namespaces/inkscape"
   version="1.1"
   id="Layer_1"
   x="0px"
   y="0px"
   viewBox="0 0 500 511"
   enable-background="new 0 0 2160 2880"
   xml:space="preserve"
   inkscape:version="0.91 r13725"
   sodipodi:docname="scl.svg"
   width="500"
   height="511"><metadata
     id="metadata9"><rdf:RDF><cc:Work
         rdf:about=""><dc:format>image/svg+xml</dc:format><dc:type
           rdf:resource="http://purl.org/dc/dcmitype/StillImage" /><dc:title></dc:title></cc:Work></rdf:RDF></metadata><defs
     id="defs7" /><sodipodi:namedview
     pagecolor="#ffffff"
     bordercolor="#666666"
     borderopacity="1"
     objecttolerance="10"
     gridtolerance="10"
     guidetolerance="10"
     inkscape:pageopacity="0"
     inkscape:pageshadow="2"
     inkscape:window-width="1855"
     inkscape:window-height="1056"
     id="namedview5"
     showgrid="false"
     inkscape:zoom="1.3111111"
     inkscape:cx="273.84993"
     inkscape:cy="318.67137"
     inkscape:window-x="65"
     inkscape:window-y="24"
     inkscape:window-maximized="1"
     inkscape:current-layer="Layer_1" /><path
     glyph-name="skull-crossbones"
     unicode=""
     horiz-adv-x="448"
     d="m 463.18597,453.45576 -141.61121,-68.88059 141.6212,-68.88064 c 7.87942,-3.9397 11.08109,-13.52481 7.13139,-21.40423 l -14.27281,-28.55564 c -3.9398,-7.87947 -13.52481,-11.08113 -21.41426,-7.14138 L 248.59479,349.07759 62.549358,258.59328 C 54.669881,254.65353 45.084845,257.8452 41.13513,265.73466 L 26.862302,294.2903 c -3.939738,7.87942 -0.748053,17.46453 7.131429,21.40423 L 175.6149,384.57517 34.003703,453.45576 c -7.879478,3.93972 -11.081139,13.52477 -7.131427,21.41423 l 14.272829,28.55565 c 3.93974,7.87946 13.524776,11.08111 21.414231,7.13142 l 186.035454,-90.48439 186.04549,90.48439 c 7.8795,3.93972 17.46456,0.74804 21.41426,-7.13142 l 14.27281,-28.55565 c 3.9397,-7.88946 0.73808,-17.47451 -7.14138,-21.41423 z m -288.39891,-215.2195 -5.46577,25.80285 c -2.66306,12.58715 5.40591,24.78543 16.40728,24.78543 l 125.75248,0 c 11.00134,0 19.07033,-12.19828 16.40727,-24.78543 l -5.48575,-25.80285 c 41.6715,-22.35175 69.81819,-62.587 69.81819,-108.99612 0,-70.50638 -64.30255,-127.66749 -143.62597,-127.66749 -79.32336,0 -143.62591,57.16111 -143.62591,127.66749 0,46.40912 28.14669,86.64437 69.81818,108.99612 z M 304.44935,113.28168 c 17.60415,0 31.91687,14.31277 31.91687,31.91691 0,17.60414 -14.31272,31.91691 -31.91687,31.91691 -17.60415,0 -31.91689,-14.31277 -31.91689,-31.91691 0,-17.60414 14.31274,-31.91691 31.91689,-31.91691 z m -111.70904,0 c 17.60413,0 31.91686,14.31277 31.91686,31.91691 0,17.60414 -14.31273,31.91691 -31.91686,31.91691 -17.60416,0 -31.91689,-14.31277 -31.91689,-31.91691 0,-17.60414 14.31273,-31.91691 31.91689,-31.91691 z"
     id="path3"
     inkscape:connector-curvature="0"
     style="fill:#e3ecf6" /></svg>