<?xml version="1.0" encoding="iso-8859-1"?>
<!-- Generator: Adobe Illustrator 19.0.0, SVG Export Plug-In . SVG Version: 6.00 Build 0)  -->
<svg version="1.1" id="Layer_1" xmlns="http://www.w3.org/2000/svg" xmlns:xlink="http://www.w3.org/1999/xlink" x="0px" y="0px"
	 viewBox="0 0 512.001 512.001" style="enable-background:new 0 0 512.001 512.001;" xml:space="preserve">
<path style="fill:#f14d34;" d="M256.001,0C201.913,56.961,123.155,65.816,79.388,65.816c-10.822,0.092-21.64-0.512-32.385-1.81
	v224.002c0,132.003,208.998,223.993,208.998,223.993S464.998,420.003,464.998,288V63.998c-10.742,1.298-21.557,1.903-32.377,1.81
	C388.846,65.816,310.119,56.961,256.001,0z"/>
<rect x="166.68" y="228.49" style="fill:#FFFFFF;" width="178.65" height="120.91"/>
<g>
	<path style="fill:#1A1718;" d="M308.079,224.56v-61.315c0-28.763-23.318-52.08-52.08-52.08s-52.08,23.316-52.08,52.08v61.315
		h-41.215v128.783h186.563V224.56H308.079z M211.791,163.245c0-24.416,19.792-44.209,44.209-44.209
		c24.416,0,44.209,19.793,44.209,44.209v61.315h-88.417L211.791,163.245L211.791,163.245z M341.394,345.472H170.576v-113.04h170.819
		v113.04H341.394z"/>
	<rect x="252.06" y="267.04" style="fill:#1A1718;" width="7.872" height="45.11"/>
</g>
<g>
</g>
<g>
</g>
<g>
</g>
<g>
</g>
<g>
</g>
<g>
</g>
<g>
</g>
<g>
</g>
<g>
</g>
<g>
</g>
<g>
</g>
<g>
</g>
<g>
</g>
<g>
</g>
<g>
</g>
</svg>
